<?xml version="1.0" encoding="UTF-8" standalone="no"?>
<svg xmlns:sketch="http://www.bohemiancoding.com/sketch/ns" xmlns="http://www.w3.org/2000/svg" height="34px" width="72px" version="1.1" xmlns:xlink="http://www.w3.org/1999/xlink" viewBox="0 0 72 34"><!-- Generator: Sketch 3.2.2 (9983) - http://www.bohemiancoding.com/sketch -->
 <title>xrebel-logo-72x34px</title>
 <desc>Created with Sketch.</desc>
 <g id="Page-1" fill-rule="evenodd" sketch:type="MSPage">
  <path id="Fill-1" sketch:type="MSShapeGroup" fill="#fff" d="m23.989 19.102h-1.734v5.877h-2.955v-14.879h5.536c3.114 0 4.887 1.959 4.887 4.432 0 1.563-0.847 3.601-2.759 4.175l3.449 6.272h-3.527l-2.897-5.877zm0.237-2.413c2.029 0 2.541-1.088 2.541-2.038 0-1.068-0.512-2.018-2.64-2.018h-1.872v4.056h1.971z"/>
  <path id="Fill-2" sketch:type="MSShapeGroup" fill="#fff" d="m32.855 20.773c0.119 1.187 0.848 2.374 2.365 2.374 0.867 0 1.636-0.415 2.03-1.207l2.758 0.218c-0.689 2.077-2.542 3.166-4.926 3.166-3.054 0-5.182-2.098-5.182-5.343 0-3.284 2.128-5.381 5.182-5.381s5.182 2.097 5.182 5.381v0.792h-7.409zm4.572-1.82c-0.099-0.99-0.848-2.177-2.207-2.177-1.478 0-2.207 1.029-2.365 2.177h4.572z"/>
  <path id="Fill-3" sketch:type="MSShapeGroup" fill="#fff" d="m43.909 10.071l-0.005 6.209h0.039c0.946-1.246 1.912-1.662 3.212-1.662 2.916 0 4.69 2.513 4.69 5.343 0 2.829-1.912 5.381-4.73 5.381-1.3 0-2.482-0.285-3.29-1.493h-0.039v1.187h-2.72l0.005-14.965h2.838zm-0.104 9.929c0 1.702 0.907 3.047 2.522 3.047 1.676 0 2.562-1.405 2.562-3.008 0-1.543-0.847-3.007-2.482-3.007-1.774 0-2.602 1.444-2.602 2.968z"/>
  <path id="Fill-4" sketch:type="MSShapeGroup" fill="#fff" d="m55.736 20.773c0.119 1.187 0.848 2.374 2.365 2.374 0.867 0 1.636-0.415 2.029-1.207l2.759 0.218c-0.69 2.077-2.542 3.166-4.926 3.166-3.054 0-5.182-2.098-5.182-5.343 0-3.284 2.128-5.381 5.182-5.381s5.182 2.097 5.182 5.381v0.792h-7.409zm4.571-1.82c-0.098-0.99-0.846-2.177-2.206-2.177-1.478 0-2.207 1.029-2.365 2.177h4.571z"/>
  <path id="Fill-5" sketch:type="MSShapeGroup" fill="#fff" d="m64.081 10.107h2.837v14.879h-2.837v-14.879z"/>
  <path id="Fill-6" sketch:type="MSShapeGroup" fill="#95C11F" d="m5.0661 24.955l4.7599-7.741-4.575-7.093h3.4866l2.9624 4.766 2.902-4.766h3.457l-4.595 7.204 4.759 7.63h-3.597l-2.986-5.131-2.9967 5.131h-3.5772"/>
 </g>
</svg>
